<svg width="41" height="35" viewBox="0 0 41 35" fill="none" xmlns="http://www.w3.org/2000/svg">
<path d="M38.9795 5.97728C40.5457 4.61073 40.5457 2.39146 38.9795 1.02491C37.4134 -0.341637 34.8701 -0.341637 33.304 1.02491L20.1111 12.5476L6.90569 1.03584C5.33958 -0.330705 2.79623 -0.330705 1.23012 1.03584C-0.335985 2.40239 -0.335985 4.62166 1.23012 5.98821L14.4355 17.5L1.24265 29.0227C-0.323456 30.3893 -0.323456 32.6085 1.24265 33.9751C2.80876 35.3416 5.35211 35.3416 6.91822 33.9751L20.1111 22.4524L33.3165 33.9642C34.8826 35.3307 37.426 35.3307 38.9921 33.9642C40.5582 32.5976 40.5582 30.3783 38.9921 29.0118L25.7867 17.5L38.9795 5.97728Z" fill="black"/>
</svg>